HIERARCHY
ROOT pelvis
{
	OFFSET 0.000000 0.000000 0.000000
	CHANNELS 6 Xposition Yposition Zposition Zrotation Xrotation Yrotation
	JOINT lfemur
	{
		OFFSET 11.446000 0.000000 0.000000
		CHANNELS 3 Zrotation Xrotation Yrotation
		JOINT ltibia
		{
			OFFSET 0.000000 -42.030400 0.000000
			CHANNELS 3 Zrotation Xrotation Yrotation
			JOINT lfoot
			{
				OFFSET 0.000000 -39.930200 0.000000
				CHANNELS 3 Zrotation Xrotation Yrotation
				JOINT ltoes
				{
					OFFSET 0.000000 0.000000 11.775800
					CHANNELS 3 Zrotation Xrotation Yrotation
					End Site
					{
					    OFFSET 0.000000 0.000000 5.000000
					}
				}
			}
		}
	}
	JOINT rfemur
	{
		OFFSET -11.446000 0.000000 0.000000
		CHANNELS 3 Zrotation Xrotation Yrotation
		JOINT rtibia
		{
			OFFSET 0.000000 -42.030400 0.000000
			CHANNELS 3 Zrotation Xrotation Yrotation
			JOINT rfoot
			{
				OFFSET 0.000000 -39.930200 0.000000
				CHANNELS 3 Zrotation Xrotation Yrotation
				JOINT rtoes
				{
					OFFSET 0.000000 0.000000 11.775800
					CHANNELS 3 Zrotation Xrotation Yrotation
					End Site
					{
					    OFFSET 0.000000 0.000000 5.000000
					}
				}
			}
		}
	}
	JOINT thorax
	{
		OFFSET 0.000000 11.255600 -5.000000
		CHANNELS 3 Zrotation Xrotation Yrotation
		JOINT head
		{
			OFFSET 0.000000 43.799300 0.000000
			CHANNELS 3 Zrotation Xrotation Yrotation
			End Site
			{
			    OFFSET 0.000000 5.000000 0.000000
			}
		}
		JOINT lclavicle
		{
			OFFSET 0.000000 39.863000 0.000000
			CHANNELS 3 Zrotation Xrotation Yrotation
			JOINT lhumerus
			{
				OFFSET 17.380600 4.958300 0.000000
				CHANNELS 3 Zrotation Xrotation Yrotation
				JOINT lradius
				{
					OFFSET 0.000000 -27.561300 0.000000
					CHANNELS 3 Zrotation Xrotation Yrotation
					JOINT lhand
					{
						OFFSET 0.000000 -26.933000 0.000000
						CHANNELS 3 Zrotation Xrotation Yrotation
						End Site
						{
						    OFFSET 0.000000 -5.000000 0.000000
						}
					}
				}
			}
		}
		JOINT rclavicle
		{
			OFFSET 0.000000 39.863000 0.000000
			CHANNELS 3 Zrotation Xrotation Yrotation
			JOINT rhumerus
			{
				OFFSET -17.380600 4.958300 0.000000
				CHANNELS 3 Zrotation Xrotation Yrotation
				JOINT rradius
				{
					OFFSET 0.000000 -27.561300 0.000000
					CHANNELS 3 Zrotation Xrotation Yrotation
					JOINT rhand
					{
						OFFSET 0.000000 -26.933000 0.000000
						CHANNELS 3 Zrotation Xrotation Yrotation
						End Site
						{
						    OFFSET 0.000000 -5.000000 0.000000
						}
					}
				}
			}
		}
	}
}
MOTION
Frames:	13
Frame Time:	0.0333333
6.8604 81.5544 -209.005 7.26129 12.9592 -8.16195 -12.9394 15.855 0.562645 0.080914 20.7052 -1.24204 6.0567 23.0999 0.00959921 -0 -5 -0 2.49152 -60.6274 4.30887 -1.20356 63.3102 1.08813 -1.48531 4.33643 0.0911198 -1.39131e-016 -5 -1.59635e-015 -5.26539 5.99478 -11.1367 10.7666 -25.1035 8.92628 7.95139e-016 3.18055e-015 3.18055e-015 13.8478 -7.67091 -37.9516 148.247 -23.5019 112.739 -0.885327 3.66654 27.1363 7.95139e-016 3.18055e-015 3.18055e-015 -16.1879 33.4228 49.2965 -115.902 -47.2656 -88.8748 0.202128 1.79529 -12.8743 
7.5456 83.1272 -192.172 7.83585 11.4301 -6.64251 -12.7761 26.6065 -3.9508 0.0343219 10.2813 0.502509 11.174 41.6282 -13.9939 -0 -5 -0 -1.37192 -55.3751 0.259358 -0.317525 40.0987 0.295456 -2.35164 11.6485 5.14074 2.65872e-016 -5 1.99544e-016 -3.54964 6.89054 -11.3747 7.96428 -25.6192 7.28837 7.95139e-016 3.18055e-015 -3.18055e-015 12.0695 -6.60819 -39.9296 147.494 -24.407 112.296 -1.01952 3.91709 29.1668 7.95139e-016 3.18055e-015 -3.18055e-015 -15.0524 36.6054 44.4533 -117.766 -46.5333 -90.4145 0.230371 1.91441 -13.7457 
8.39514 83.0906 -176.811 10.3222 10.6352 -8.37019 -16.0293 27.9916 -5.43214 0.0661035 17.0315 1.00488 21.8825 50.8465 -24.6303 3.52838e-015 -5 3.99088e-015 -3.45667 -52.7423 -4.96842 -0.140142 27.4054 0.029826 -2.839 16.945 4.1234 4.96962e-017 -5 -0 -5.48322 8.5346 -4.0673 4.06768 -27.1035 0.646442 -7.95139e-016 0 -1.59028e-015 9.57845 -5.963 -46.4168 141.436 -30.9529 108.447 -0.325054 2.26472 16.3439 -7.95139e-016 0 -1.59028e-015 -7.71625 35.7481 34.3285 -117.811 -46.5144 -90.4501 0.204567 1.80565 -12.9502 
8.73576 82.8373 -161.807 9.77076 8.86225 -8.35889 -16.0331 23.2956 -4.08524 0.245131 35.8567 1.27929 24.6531 47.6887 -28.0048 -1.72941e-015 -5 -1.59635e-015 -3.09542 -49.7848 -10.4482 -0.171918 30.4052 -0.0974397 -2.49239 18.8411 1.27103 1.39131e-016 -5 1.59635e-015 -4.11354 10.3786 -2.63975 2.4501 -29.2152 1.01005 -0 0 1.59028e-015 6.98401 -1.27025 -40.67 131.068 -39.4444 100.984 -0.760318 3.41473 25.118 -0 0 1.59028e-015 -7.17802 31.8225 32.6047 -115.752 -47.3209 -88.7495 0.188541 1.73464 -12.4311 
8.4391 81.9804 -147.115 7.38599 6.67327 -8.50021 -12.8053 16.5403 -0.754769 0.84727 57.413 0.907288 21.4285 39.8983 -26.0465 4.07518e-015 -5 -7.98176e-015 -0.0362418 -45.1127 -10.5948 -0.326275 40.4604 0.136055 -3.95019 11.3343 4.24607 -2.38542e-015 -5 -0 -1.29651 13.1169 -0.954656 0.0921891 -29.1197 -1.37303 -1.59028e-015 -3.18055e-015 -0 5.35845 0.970139 -37.7491 114.155 -47.9041 87.4206 -0.620863 3.10081 22.6607 -1.59028e-015 -3.18055e-015 -0 -8.01787 25.1366 32.791 -111.772 -48.698 -85.4257 0.206179 1.81289 -13.0033 
7.87821 80.4719 -133.992 5.66559 6.6132 -6.17334 -7.40702 4.17455 0.0367251 4.33546 79.5563 -2.95649 10.9394 28.0154 -15.2754 3.47828e-016 -5 3.99088e-015 2.60982 -41.0178 -7.32074 -0.640395 52.2618 0.0479383 -8.29466 -3.95866 -7.11112 -1.0734e-015 -5 -3.1927e-015 0.594199 14.6907 -1.11551 -0.981686 -30.2697 -2.96529 -1.19271e-015 6.36111e-015 -1.59028e-015 5.37916 1.8327 -36.1776 94.5245 -52.3515 70.6608 -0.66606 3.20679 23.4845 -1.19271e-015 6.36111e-015 -1.59028e-015 -7.99869 15.0436 33.7176 -106.38 -50.2155 -80.863 0.184945 1.71845 -12.3155 
6.57487 79.455 -120.093 0.117814 6.25511 -6.82362 2.68784 -7.9839 4.28097 169.136 84.5729 -168.158 6.17253 12.4183 -11.7999 -1.65984e-015 -5 -7.98176e-016 10.5127 -30.9617 -1.70911 -0.764 56.0936 0.336784 -6.46921 -14.2623 -14.987 -5.16876e-016 -5 3.1927e-015 6.97397 15.8659 0.177124 -2.22034 -30.3692 -2.06558 1.59028e-015 0 7.95139e-016 3.77656 5.95495 -33.944 83.544 -53.067 61.1025 -0.508989 2.81799 20.4955 1.59028e-015 0 7.95139e-016 -11.4244 3.87783 38.352 -105.766 -50.366 -80.3387 0.176 1.67701 -12.0136 
6.04236 79.6026 -106.686 -0.211766 6.61565 -3.96836 5.43843 -24.107 4.43453 174.855 77.489 -174.126 2.82545 6.12661 -5.15709 3.26089e-018 -5 3.74145e-017 9.80961 -20.0259 -2.60962 -0.678135 54.6717 0.0226228 -6.3555 -20.5233 -19.1162 -1.86854e-015 -5 -3.1927e-015 6.99108 15.6693 -0.0972334 -2.74089 -30.5539 -3.93878 -9.93923e-016 0 -2.38542e-015 5.64027 10.842 -35.9565 87.5111 -52.9382 64.5615 -0.544966 2.91248 21.2153 -9.93923e-016 0 -2.38542e-015 -11.7029 -5.98427 40.9889 -115.118 -47.559 -88.2215 0.253578 2.00702 -14.4284 
5.46982 81.0804 -92.3543 -1.37951 6.63312 -3.56641 7.91238 -36.2143 6.59837 173.061 81.2334 -172.46 1.86139 5.34123 -2.20011 -5.87658e-016 -5 9.9772e-017 10.3097 -6.44451 -2.05667 -0.449146 47.4833 -0.167894 -3.61322 -16.1271 -16.2256 2.90229e-015 -5 -3.1927e-015 8.23507 14.6867 3.29491 -3.97245 -28.081 -6.55893 -3.08116e-015 0 -1.98785e-016 6.96988 15.5823 -39.529 96.3728 -52.1159 72.2624 -0.724022 3.33675 24.499 -3.08116e-015 0 -1.98785e-016 -12.8574 -10.517 42.0345 -127.483 -41.7183 -98.22 0.311606 2.2197 -16.0017 
5.13759 83.3193 -76.7658 -2.54025 6.70693 -2.5114 7.50177 -43.3303 5.70363 10.8604 85.4147 -10.5678 1.44432 1.89182 -0.874516 8.85835e-016 -5 -9.9772e-017 9.92417 7.19862 -1.75638 -0.225012 35.6698 0.0248113 -0.757013 0.462017 -7.67866 1.39131e-016 -5 1.59635e-015 10.1726 12.4312 6.68502 -5.15244 -24.5428 -8.92916 -3.97569e-015 -3.18055e-015 -3.97569e-016 7.32001 19.9889 -41.5753 102.269 -51.131 77.347 -0.739668 3.37085 24.7667 -3.97569e-015 -3.18055e-015 -3.97569e-016 -15.0166 -12.4788 41.8647 -135.918 -35.8571 -104.587 0.243762 1.96854 -14.1562 
4.88122 84.9099 -60.6798 -2.86911 6.73244 1.19393 2.56259 -46.4696 0.158038 1.4381 66.2618 -1.40186 1.63201 4.04416 -3.57919 6.95656e-017 -5 7.98176e-016 9.63372 20.0436 -0.760361 -0.0845262 21.32 -0.0104002 0.856596 25.6985 -4.47527 -0 -5 -0 10.8431 9.07851 7.38317 -4.47305 -20.9669 -11.4005 2.38542e-015 0 -7.95139e-016 7.68931 24.25 -41.6193 106.322 -50.2299 80.8141 -0.802018 3.50266 25.807 2.38542e-015 0 -7.95139e-016 -17.197 -12.0082 42.673 -141.282 -31.1026 -108.343 0.181732 1.7018 -12.2049 
4.56572 86.1117 -44.7802 -2.30881 7.42542 3.15712 -1.99031 -45.3701 -4.58455 0.382163 43.2767 -0.474277 2.33738 11.2757 -6.81399 -8.64704e-016 -5 -7.98176e-016 9.2578 26.0601 4.50596 -0.0741871 19.853 -0.288837 -0.164217 34.3639 -2.2596 8.36443e-016 -5 4.73917e-016 9.64167 6.5156 8.82332 -1.95963 -20.07 -12.1069 -1.59028e-015 0 -3.18055e-015 8.29879 27.4156 -40.5051 111.828 -48.6807 85.4739 -0.862197 3.62426 26.7757 -1.59028e-015 0 -3.18055e-015 -18.687 -10.489 44.5345 -144.419 -27.8921 -110.399 0.177866 1.68498 -12.09 
3.80814 86.3974 -29.5591 -3.18843 7.65917 4.29458 -2.51318 -42.7502 -4.59207 0.132174 26.5039 -0.193327 2.81306 20.3135 -5.53343 -1.29219e-016 -5 7.98176e-016 11.9072 25.4802 6.95682 -0.205794 33.0539 -0.285687 0.904984 27.1275 -5.59046 1.73914e-016 -5 1.99544e-015 9.92747 4.47953 9.57111 -1.02005 -19.7728 -12.9204 3.97569e-016 0 3.18055e-015 7.86978 30.6027 -38.904 118.218 -46.3471 90.7846 -0.853414 3.60674 26.6354 3.97569e-016 0 3.18055e-015 -19.2553 -6.65401 48.654 -145.335 -26.8899 -110.978 0.171848 1.65649 -11.8838 
